<svg width="23" height="20" viewBox="0 0 23 20" fill="none" xmlns="http://www.w3.org/2000/svg">
<path d="M20 18H3C1.89543 18 1 17.1046 1 16V3C1 1.89543 1.89543 1 3 1H5.17157C5.70201 1 6.21071 1.21071 6.58579 1.58579L8.41421 3.41421C8.78929 3.78929 9.29799 4 9.82843 4H20C21.1046 4 22 4.89543 22 6V10.5V16C22 17.1046 21.1046 18 20 18Z" stroke="url(#paint0_linear_6_6)" stroke-width="2"/>
<path d="M20 19H3C1.89543 19 1 18.1046 1 17V5C1 3.89543 1.89543 3 3 3H5.17157C5.70201 3 6.21071 3.21071 6.58579 3.58579L8.41421 5.41421C8.78929 5.78929 9.29799 6 9.82843 6H15.5H20C21.1046 6 22 6.89543 22 8V11.5V17C22 18.1046 21.1046 19 20 19Z" fill="#A774FF" stroke="white" stroke-width="2"/>
<defs>
<linearGradient id="paint0_linear_6_6" x1="11.5" y1="2.5" x2="11.5" y2="4.5" gradientUnits="userSpaceOnUse">
<stop stop-color="#E6E6E6"/>
<stop offset="1" stop-color="#CDCDCD"/>
</linearGradient>
</defs>
</svg>
